<svg width="491" height="93" viewBox="0 0 491 93" fill="none" xmlns="http://www.w3.org/2000/svg">
<g clip-path="url(#clip0_218_12)">
<rect x="6" y="1" width="93" height="93" rx="8" fill="white"/>
<path d="M30.1501 48.1996L51.65 48.25L48.8385 53.1434C43.8181 61.8317 34.5055 67.2099 24.4055 67.1862L24.3971 70.7862L48.997 70.8438C56.997 70.8626 64.4078 66.28 67.9249 58.9882L73.1502 48.2004L51.6502 48.15L54.4617 43.2566C59.4821 34.5683 68.7947 29.1901 78.8947 29.2138L78.9031 25.6138L54.3032 25.5562C46.3032 25.5374 38.8924 30.1201 35.3753 37.4118L30.1501 48.1996Z" fill="#201B21"/>
<path d="M127.584 55.904H142.992V68H111.6V17.024H127.584V55.904ZM145.862 47.696C145.862 43.424 146.582 39.728 148.022 36.608C149.51 33.44 151.526 31.04 154.07 29.408C156.614 27.728 159.47 26.888 162.638 26.888C165.278 26.888 167.558 27.44 169.478 28.544C171.398 29.6 172.862 31.064 173.87 32.936V27.392H189.782V68H173.87V62.456C172.862 64.328 171.398 65.816 169.478 66.92C167.558 67.976 165.278 68.504 162.638 68.504C159.47 68.504 156.614 67.688 154.07 66.056C151.526 64.376 149.51 61.976 148.022 58.856C146.582 55.688 145.862 51.968 145.862 47.696ZM173.87 47.696C173.87 45.536 173.318 43.856 172.214 42.656C171.11 41.456 169.694 40.856 167.966 40.856C166.238 40.856 164.822 41.456 163.718 42.656C162.614 43.856 162.062 45.536 162.062 47.696C162.062 49.856 162.614 51.536 163.718 52.736C164.822 53.936 166.238 54.536 167.966 54.536C169.694 54.536 171.11 53.936 172.214 52.736C173.318 51.536 173.87 49.856 173.87 47.696ZM239.943 27.392V68H223.959V61.808C222.711 63.728 221.031 65.288 218.919 66.488C216.855 67.688 214.383 68.288 211.503 68.288C206.847 68.288 203.199 66.728 200.559 63.608C197.967 60.488 196.671 56.264 196.671 50.936V27.392H212.583V48.92C212.583 50.84 213.087 52.376 214.095 53.528C215.151 54.632 216.543 55.184 218.271 55.184C220.047 55.184 221.439 54.632 222.447 53.528C223.455 52.376 223.959 50.84 223.959 48.92V27.392H239.943ZM275.603 27.104C280.259 27.104 283.883 28.664 286.475 31.784C289.115 34.904 290.435 39.128 290.435 44.456V68H274.523V46.472C274.523 44.552 273.995 43.04 272.939 41.936C271.931 40.784 270.563 40.208 268.835 40.208C267.059 40.208 265.667 40.784 264.659 41.936C263.651 43.04 263.147 44.552 263.147 46.472V68H247.163V27.392H263.147V33.584C264.395 31.664 266.051 30.104 268.115 28.904C270.227 27.704 272.723 27.104 275.603 27.104ZM295.206 47.696C295.206 43.472 296.07 39.8 297.798 36.68C299.574 33.512 302.022 31.088 305.142 29.408C308.31 27.728 311.91 26.888 315.942 26.888C321.222 26.888 325.662 28.376 329.262 31.352C332.91 34.328 335.214 38.456 336.174 43.736H319.254C318.63 41.624 317.406 40.568 315.582 40.568C314.286 40.568 313.254 41.168 312.486 42.368C311.766 43.568 311.406 45.344 311.406 47.696C311.406 50.048 311.766 51.824 312.486 53.024C313.254 54.224 314.286 54.824 315.582 54.824C317.406 54.824 318.63 53.768 319.254 51.656H336.174C335.214 56.936 332.91 61.064 329.262 64.04C325.662 67.016 321.222 68.504 315.942 68.504C311.91 68.504 308.31 67.664 305.142 65.984C302.022 64.304 299.574 61.904 297.798 58.784C296.07 55.616 295.206 51.92 295.206 47.696ZM369.681 27.104C374.337 27.104 377.961 28.664 380.553 31.784C383.193 34.904 384.513 39.128 384.513 44.456V68H368.601V46.472C368.601 44.552 368.073 43.04 367.017 41.936C366.009 40.784 364.641 40.208 362.913 40.208C361.137 40.208 359.745 40.784 358.737 41.936C357.729 43.04 357.225 44.552 357.225 46.472V68H341.241V14.72H357.225V33.584C358.473 31.664 360.129 30.104 362.193 28.904C364.305 27.704 366.801 27.104 369.681 27.104Z" fill="white"/>
<rect x="401" y="6" width="87" height="77" rx="8" fill="white"/>
<path d="M413.984 76V53.28H420.256V63.872L417.6 62.048H429.664L427.008 63.872V53.28H433.28V76H427.008V65.28L429.664 67.072H417.6L420.256 65.28V76H413.984ZM436.922 76V53.28H446.65C449.508 53.28 451.748 53.9733 453.37 55.36C455.012 56.7467 455.834 58.6453 455.834 61.056C455.834 62.6347 455.46 64.0107 454.714 65.184C453.988 66.336 452.932 67.232 451.546 67.872C450.18 68.4907 448.548 68.8 446.65 68.8H443.194V76H436.922ZM443.194 63.776H446.17C447.151 63.776 447.94 63.552 448.538 63.104C449.135 62.6347 449.434 61.952 449.434 61.056C449.434 60.16 449.135 59.4773 448.538 59.008C447.962 58.5387 447.172 58.304 446.17 58.304H443.194V63.776ZM468.506 76.512C466.394 76.512 464.506 76.0427 462.842 75.104C461.199 74.1653 459.898 72.8213 458.938 71.072C457.999 69.3013 457.53 67.168 457.53 64.672C457.53 62.2827 457.978 60.2027 458.874 58.432C459.77 56.64 461.05 55.2533 462.714 54.272C464.378 53.2693 466.351 52.768 468.634 52.768C471.749 52.768 474.17 53.5253 475.898 55.04C477.647 56.5547 478.767 58.7627 479.258 61.664L472.762 61.888C472.549 60.5867 472.079 59.584 471.354 58.88C470.629 58.1547 469.722 57.792 468.634 57.792C467.589 57.792 466.714 58.0907 466.01 58.688C465.327 59.264 464.815 60.0747 464.474 61.12C464.133 62.144 463.962 63.328 463.962 64.672C463.962 66.0587 464.143 67.264 464.506 68.288C464.869 69.312 465.391 70.1013 466.074 70.656C466.778 71.2107 467.61 71.488 468.57 71.488C469.807 71.488 470.767 71.1147 471.45 70.368C472.133 69.6 472.57 68.5227 472.762 67.136L479.29 67.36C478.97 69.344 478.351 71.0187 477.434 72.384C476.517 73.728 475.311 74.752 473.818 75.456C472.346 76.16 470.575 76.512 468.506 76.512Z" fill="#201B21"/>
<path d="M427.576 38L435.768 15.28H442.904L451.096 38H444.696L443.416 34.256H435.224L433.944 38H427.576ZM436.888 29.392H441.784L439.352 22.192L436.888 29.392ZM452.734 38V15.28H459.006V38H452.734Z" fill="#201B21"/>
</g>
<rect x="4.72949" y="46.4935" width="485.352" height="3" transform="rotate(-0.43831 4.72949 46.4935)" fill="black"/>
<defs>
<clipPath id="clip0_218_12">
<rect width="490" height="93" rx="8" fill="white"/>
</clipPath>
</defs>
</svg>
